<?xml version="1.0" encoding="utf-8"?>
<!-- Generator: Adobe Illustrator 26.5.0, SVG Export Plug-In . SVG Version: 6.00 Build 0)  -->
<svg version="1.1" id="Calque_1" xmlns="http://www.w3.org/2000/svg" xmlns:xlink="http://www.w3.org/1999/xlink" x="0px" y="0px"
	 viewBox="0 0 81.66 79.52" style="enable-background:new 0 0 81.66 79.52;" xml:space="preserve">
<path style="fill:#BCD3EF;" d="M34.68,2.14C21.54,1.94,5.48,9.85,3.14,22.24C2,28.29,4.5,33.45,5.49,35.43
	c8.23,16.45,28.17,12.18,37.13,28.79c3.66,6.79,2.03,10.66,5.68,12.46c9.29,4.58,32.53-14.27,29.92-25.44
	c-2.59-11.1-29.45-9.43-31.73-21.68c-1.47-7.92,8.86-13.47,6.13-20.22C49.8,2.36,36.25,2.16,34.68,2.14z"/>
<circle style="fill:#F9B233;" cx="13.5" cy="65.61" r="8"/>
<g>
	<path style="fill:#0F1D28;" d="M37.16,77.16c-2.32-1.36-5.27-3.45-8.84-6.28c-2.67-2.13-4.95-3.85-6.84-5.16
		c-1.89-1.31-3.95-2.41-6.16-3.32c-2.21-0.91-4.47-1.36-6.76-1.36c-0.8,0-1.41,0.03-1.84,0.08L18.64,5.68
		c-3.57,1.44-6.33,3.64-8.28,6.6c-1.95,2.96-2.92,6.57-2.92,10.84c0,1.97,0.19,3.35,0.56,4.12c0.37,0.77,0.56,1.21,0.56,1.32
		c-2.88,0-5.03-0.6-6.44-1.8C0.71,25.56,0,23.57,0,20.8c0-3.41,1.4-6.73,4.2-9.96C7,7.61,10.59,5,14.96,3c4.37-2,8.75-3,13.12-3
		c0.75,0,1.81,0.05,3.2,0.16L18.96,57.6c1.49,0.37,3.03,0.92,4.6,1.64c1.57,0.72,3.48,1.69,5.72,2.92c3.47,1.87,6.43,3.29,8.88,4.28
		c2.45,0.99,5.01,1.48,7.68,1.48c2.4,0,4.64-0.43,6.72-1.28c-0.43,3.89-1.37,6.96-2.84,9.2c-1.47,2.24-3.29,3.36-5.48,3.36
		C41.84,79.2,39.48,78.52,37.16,77.16z"/>
</g>
<g>
	<path style="fill:#0F1D28;" d="M62.55,62.89l-5.18-20.25c-2.56,0.97-4.54,2.48-5.94,4.51c-1.4,2.03-2.11,4.53-2.11,7.48
		c0,1.33,0.12,2.26,0.38,2.78c0.25,0.52,0.38,0.82,0.38,0.89c-1.94,0-3.39-0.41-4.35-1.21c-0.95-0.81-1.43-2.15-1.43-4.02
		c0-2.3,0.95-4.54,2.83-6.72c1.89-2.18,4.31-3.94,7.26-5.29c2.95-1.35,5.9-2.03,8.86-2.03c0.5,0,1.22,0.04,2.16,0.11l4.7,19.33
		l7.99-19.17h3.56l-10.48,23.6l-3.56,16.63h-8.64L62.55,62.89z"/>
</g>
<g>
</g>
<g>
</g>
<g>
</g>
<g>
</g>
<g>
</g>
<g>
</g>
</svg>
