<?xml version="1.0" encoding="utf-8"?>
<!-- Generator: Adobe Illustrator 26.5.0, SVG Export Plug-In . SVG Version: 6.00 Build 0)  -->
<svg version="1.1" id="Calque_1" xmlns="http://www.w3.org/2000/svg" xmlns:xlink="http://www.w3.org/1999/xlink" x="0px" y="0px"
	 viewBox="0 0 141.05 91.5" style="enable-background:new 0 0 141.05 91.5;" xml:space="preserve">
<path style="fill:#F6A11B;" d="M12.44,91.36l-10.85,0c-0.93,0-1.66-0.8-1.58-1.73L7.89,2.8c0.07-0.82,0.76-1.44,1.58-1.44l10.8,0
	c0.93,0,1.66,0.8,1.58,1.73l-7.83,86.83C13.94,90.73,13.26,91.36,12.44,91.36z"/>
<path style="fill:#232F54;" d="M35.98,91.36l-12.76,0c-0.92,0-1.64-0.79-1.56-1.7l7.74-86.87c0.07-0.81,0.75-1.42,1.56-1.42l12.76,0
	c0.92,0,1.64,0.79,1.56,1.7l-7.74,86.87C37.47,90.74,36.79,91.36,35.98,91.36z"/>
<g>
	<path style="fill:#212F54;" d="M82.12,7.69c-6.18,2.03-10.96,5.39-14.33,10.06c-3.38,4.68-5.06,10.47-5.06,17.39
		c0,3.09,0.28,5.21,0.85,6.34c0.57,1.14,0.85,1.83,0.85,2.07c-8.7,0-13.05-3.7-13.05-11.1c0-5.04,1.93-10.1,5.79-15.19
		C61.03,12.18,66,8.03,72.06,4.82C78.11,1.61,84.15,0,90.17,0c3.01,0,6.1,0.57,9.27,1.71L96.64,66l26.84-64.29h17.57L128.24,91.5
		h-17.57l7.81-54.78L95.54,91.5H78.83l2.44-55.02L60.89,91.5h-9.76L82.12,7.69z"/>
</g>
<circle style="fill:#FFE66D;" cx="29.07" cy="19.96" r="7.55"/>
<g>
</g>
<g>
</g>
<g>
</g>
<g>
</g>
<g>
</g>
<g>
</g>
</svg>
