<?xml version="1.0" encoding="UTF-8"?>
<svg id="a" data-name="Calque 1" xmlns="http://www.w3.org/2000/svg" viewBox="0 0 77.18 81.19">
  <path d="m33.43,3.54c-13.14-.2-29.21,7.72-31.54,20.11-1.14,6.04,1.36,11.2,2.35,13.19,8.23,16.45,28.17,12.18,37.13,28.79,3.66,6.79,2.03,10.66,5.68,12.46,9.29,4.58,32.53-14.27,29.92-25.44-2.59-11.1-29.45-9.43-31.73-21.68-1.47-7.92,8.86-13.47,6.13-20.22-2.83-6.98-16.38-7.19-17.94-7.21Z" style="fill: #82bf69; stroke-width: 0px;"/>
  <circle cx="12.25" cy="67.01" r="8" style="fill: #f9b233; stroke-width: 0px;"/>
  <g>
    <path d="m27.51,45.61c-.35.4-.64.71-.92,1.04-6.78,7.99-19.12,6.59-23.94-2.72C.53,39.85-.05,35.47,0,30.95c.1-7.71,2.29-14.76,7.33-20.64C14.72,1.69,24.12-1.68,35.3.79c3.87.85,6.94,3.08,8.13,7.14.81,2.77.74,5.55-.83,8.08-2.18,3.52-7.63,3.58-9.79.13,1.8-1.58,2.86-3.59,3.19-5.96.63-4.56-2.05-7.05-6.62-6.26-3.57.62-6.29,2.61-8.62,5.23-4.6,5.16-7.03,11.32-8.02,18.08-.54,3.68-.62,7.38.22,11.05.04.16.06.31.11.47.81,2.7,2.02,5.09,5.05,5.83,3.22.78,5.8-.52,7.93-2.8,3.13-3.36,4.62-7.58,5.85-11.89.81-2.85.78-2.86,3.76-2.86h6.48c-.73,3.38-1.41,6.59-2.12,9.8-1.58,7.15-3.12,14.31-4.8,21.44-.89,3.77-2.35,7.35-4.35,10.69-5.17,8.69-14.34,9.49-20.73,6.71-5.24-2.28-7.52-8.05-5.48-13.53,1.97-5.29,7.6-8.28,12.79-6.78,3.78,1.09,5.38,5,3.26,8.2-1.28-1.29-2.81-2.03-4.66-2.01-2.48.03-4.4,1.52-5.06,3.94-.73,2.7.21,5.47,2.3,6.77,1.95,1.2,4.68.84,6.51-.87,2.1-1.97,3.01-4.57,3.65-7.26,1.42-6,2.74-12.03,4.1-18.05.02-.1-.02-.22-.05-.47Z" style="stroke-width: 0px;"/>
    <path d="m59.75,73.16c-.52,2.97-1.61,5.33-4.13,6.71-2.96,1.63-6.13,1.69-9.24.49-3.19-1.23-4.29-3.98-4.3-7.1-.02-6.16,1.53-11.85,5.9-16.44,2.97-3.12,6.69-4.03,10.83-3.33,2.31.39,3.56,1.95,3.74,4.31.33,4.37-2.31,8.56-6.89,10.63-1.47.66-3.09,1.01-4.67,1.38-.63.15-.93.39-.87,1,.09.99.07,2,.33,2.95.44,1.63,1.93,2.55,3.64,2.06,1.58-.45,3.06-1.26,4.57-1.94.31-.14.58-.39,1.08-.73Zm-9.06-6.02c.28,0,.43.01.57,0,3.79-.39,7.48-5.07,7.07-9.06-.06-.61-.39-1.51-.81-1.67-.54-.2-1.51.03-1.93.44-.9.87-1.69,1.91-2.3,3-1.26,2.25-2.13,4.66-2.6,7.29Z" style="stroke-width: 0px;"/>
  </g>
</svg>