<?xml version="1.0" encoding="UTF-8"?>
<svg id="a" data-name="Calque 1" xmlns="http://www.w3.org/2000/svg" viewBox="0 0 79.31 80.84">
  <path d="m32.55,3.28C19.41,3.08,3.35,11,1.01,23.39c-1.14,6.04,1.36,11.2,2.35,13.19,8.23,16.45,28.17,12.18,37.13,28.79,3.66,6.79,2.03,10.66,5.68,12.46,9.29,4.58,32.53-14.27,29.92-25.44-2.59-11.1-29.45-9.43-31.73-21.68-1.47-7.92,8.86-13.47,6.13-20.22-2.83-6.98-16.38-7.19-17.94-7.21Z" style="fill: #5c9ad3; stroke-width: 0px;"/>
  <circle cx="11.37" cy="66.75" r="8" style="fill: #f9b233; stroke-width: 0px;"/>
  <g>
    <path d="m18.19,40.38c-1.55.38-3.08.55-4.45,1.12-3.77,1.56-5.47,5.67-4.21,9.79,1.1,3.62,4.63,5.59,8.74,4.89,5.41-.92,8.84-5.79,8.07-11.29-.44-3.12-1.86-5.75-3.75-8.15-2.96-3.76-6.03-7.43-8.99-11.19-1.85-2.36-3.45-4.89-3.96-7.95-1.02-6.16,1.27-11.4,6.66-14.55C22.31-.47,28.7-.95,35.13,1.66c5.12,2.08,7.48,7.21,6.08,12.47-1.23,4.63-6.29,6.33-9.74,3.28-.32-.28-.58-.63-.91-1,1.65-1.43,2.7-3.11,3.08-5.2.43-2.34.2-4.52-1.82-6.05-2.12-1.6-4.49-1.48-6.79-.41-2.67,1.25-4.3,4.55-4.07,7.69.18,2.43.97,4.61,2.52,6.46,2.78,3.34,5.62,6.63,8.47,9.91,2.59,2.98,4.79,6.19,5.87,10.03,2.2,7.81-1,15.62-8.35,19.79-7.15,4.05-14.73,4.75-22.2,1.09-9.77-4.78-8.8-17.65-2.22-22.43,2.87-2.09,6.01-2.69,9.37-1.42,2.12.8,3.41,2.37,3.79,4.5Z" style="stroke-width: 0px;"/>
    <path d="m55.06,44.05c-6.05,2.07-9.41,8.69-7.33,15.37-2.7.6-5.07-.91-5.58-3.56-.53-2.74.26-5.18,1.93-7.28,4.53-5.68,10.54-8.3,17.74-8.3.84,0,1.41.19,1.65,1.23,1.31,5.75,2.72,11.47,4.11,17.2.04.15.12.28.28.61.26-.56.46-.96.63-1.37,2.2-5.3,4.44-10.58,6.58-15.9.47-1.16,1.02-1.78,2.32-1.56.57.09,1.18.02,1.93.02-.17.46-.26.78-.4,1.09-2.95,6.67-5.82,13.38-8.89,20-1.5,3.25-1.91,6.73-2.71,10.13-.65,2.71-1.15,5.46-1.77,8.17-.08.35-.44.89-.69.9-2.66.06-5.33.04-8.19.04.41-2.01.78-3.87,1.18-5.72.73-3.43,1.49-6.85,2.21-10.28.08-.38.11-.81.02-1.18-1.66-6.52-3.34-13.04-5.03-19.61Z" style="stroke-width: 0px;"/>
  </g>
</svg>